<svg width="512" height="512" viewBox="0 0 512 512" fill="none" xmlns="http://www.w3.org/2000/svg">
  <!-- 8-bit triangle pointing top-right - osschat logo -->
  <rect width="512" height="512" fill="#1C1917"/>
  
  <!-- Complete 8-bit triangle - tip at top-right, base at bottom-left -->
  <!-- Using 48px blocks for chunky 8-bit feel -->
  
  <!-- Row 1 - tip -->
  <rect x="368" y="80" width="48" height="48" fill="#2DD4A8"/>
  
  <!-- Row 2 -->
  <rect x="320" y="128" width="48" height="48" fill="#2DD4A8"/>
  <rect x="368" y="128" width="48" height="48" fill="#2DD4A8"/>
  
  <!-- Row 3 -->
  <rect x="272" y="176" width="48" height="48" fill="#2DD4A8"/>
  <rect x="320" y="176" width="48" height="48" fill="#2DD4A8"/>
  <rect x="368" y="176" width="48" height="48" fill="#2DD4A8"/>
  
  <!-- Row 4 -->
  <rect x="224" y="224" width="48" height="48" fill="#2DD4A8"/>
  <rect x="272" y="224" width="48" height="48" fill="#2DD4A8"/>
  <rect x="320" y="224" width="48" height="48" fill="#2DD4A8"/>
  <rect x="368" y="224" width="48" height="48" fill="#2DD4A8"/>
  
  <!-- Row 5 -->
  <rect x="176" y="272" width="48" height="48" fill="#2DD4A8"/>
  <rect x="224" y="272" width="48" height="48" fill="#2DD4A8"/>
  <rect x="272" y="272" width="48" height="48" fill="#2DD4A8"/>
  <rect x="320" y="272" width="48" height="48" fill="#2DD4A8"/>
  <rect x="368" y="272" width="48" height="48" fill="#2DD4A8"/>
  
  <!-- Row 6 -->
  <rect x="128" y="320" width="48" height="48" fill="#2DD4A8"/>
  <rect x="176" y="320" width="48" height="48" fill="#2DD4A8"/>
  <rect x="224" y="320" width="48" height="48" fill="#2DD4A8"/>
  <rect x="272" y="320" width="48" height="48" fill="#2DD4A8"/>
  <rect x="320" y="320" width="48" height="48" fill="#2DD4A8"/>
  <rect x="368" y="320" width="48" height="48" fill="#2DD4A8"/>
  
  <!-- Row 7 - base -->
  <rect x="80" y="368" width="48" height="48" fill="#2DD4A8"/>
  <rect x="128" y="368" width="48" height="48" fill="#2DD4A8"/>
  <rect x="176" y="368" width="48" height="48" fill="#2DD4A8"/>
  <rect x="224" y="368" width="48" height="48" fill="#2DD4A8"/>
  <rect x="272" y="368" width="48" height="48" fill="#2DD4A8"/>
  <rect x="320" y="368" width="48" height="48" fill="#2DD4A8"/>
  <rect x="368" y="368" width="48" height="48" fill="#2DD4A8"/>
</svg>
