<svg xmlns="http://www.w3.org/2000/svg" width="1600" height="900" viewBox="0 0 1600 900">
  <defs>
    <linearGradient id="bg" x1="0%" y1="0%" x2="100%" y2="100%">
      <stop offset="0%" stop-color="#101629"/>
      <stop offset="50%" stop-color="#0c1221"/>
      <stop offset="100%" stop-color="#090f1a"/>
    </linearGradient>
    <linearGradient id="accent" x1="0%" y1="0%" x2="100%" y2="100%">
      <stop offset="0%" stop-color="#8b5cf6"/>
      <stop offset="100%" stop-color="#2bc8b7"/>
    </linearGradient>
    <radialGradient id="glow" cx="50%" cy="0%" r="80%">
      <stop offset="0%" stop-color="#8b5cf6" stop-opacity="0.35"/>
      <stop offset="80%" stop-color="#8b5cf6" stop-opacity="0"/>
    </radialGradient>
    <filter id="softShadow" x="-20%" y="-20%" width="140%" height="140%">
      <feGaussianBlur in="SourceAlpha" stdDeviation="18" result="blur"/>
      <feOffset dy="18" result="offsetBlur"/>
      <feMerge>
        <feMergeNode in="offsetBlur"/>
        <feMergeNode in="SourceGraphic"/>
      </feMerge>
    </filter>
  </defs>
  <rect width="1600" height="900" fill="url(#bg)"/>
  <circle cx="800" cy="120" r="480" fill="url(#glow)"/>
  <g transform="translate(210 150)">
    <rect width="1180" height="600" rx="32" fill="rgba(8,12,24,0.95)" stroke="rgba(148,163,184,0.1)" stroke-width="2"/>
    <rect x="32" y="36" width="320" height="64" rx="18" fill="rgba(148,163,184,0.08)" />
    <rect x="384" y="36" width="220" height="64" rx="18" fill="rgba(148,163,184,0.05)" />
    <rect x="632" y="36" width="140" height="64" rx="18" fill="rgba(148,163,184,0.05)" />
    <g transform="translate(32 128)">
      <rect width="520" height="360" rx="24" fill="rgba(15,23,42,0.8)" stroke="rgba(148,163,184,0.1)" stroke-width="1"/>
      <rect x="32" y="36" width="456" height="48" rx="14" fill="rgba(148,163,184,0.14)"/>
      <rect x="32" y="108" width="288" height="48" rx="14" fill="rgba(148,163,184,0.1)"/>
      <rect x="32" y="180" width="408" height="48" rx="14" fill="rgba(148,163,184,0.14)"/>
      <rect x="32" y="252" width="260" height="48" rx="14" fill="rgba(148,163,184,0.1)"/>
    </g>
    <g transform="translate(600 128)">
      <rect width="520" height="360" rx="24" fill="rgba(17,24,40,0.75)" stroke="rgba(148,163,184,0.08)" stroke-width="1"/>
      <rect x="40" y="40" width="440" height="120" rx="20" fill="rgba(43,214,183,0.12)" stroke="rgba(43,214,183,0.35)" stroke-width="1.2"/>
      <rect x="40" y="188" width="344" height="100" rx="20" fill="rgba(139,92,246,0.12)" stroke="rgba(139,92,246,0.28)" stroke-width="1.2"/>
      <rect x="40" y="312" width="440" height="18" rx="9" fill="rgba(148,163,184,0.18)"/>
      <rect x="40" y="342" width="300" height="18" rx="9" fill="rgba(148,163,184,0.14)"/>
    </g>
    <g transform="translate(32 520)">
      <rect width="316" height="48" rx="16" fill="rgba(148,163,184,0.08)"/>
      <rect x="344" width="316" height="48" rx="16" fill="rgba(148,163,184,0.08)"/>
      <rect x="688" width="372" height="48" rx="16" fill="url(#accent)" filter="url(#softShadow)" />
    </g>
  </g>
</svg>
