<svg xmlns="http://www.w3.org/2000/svg" width="1600" height="900" viewBox="0 0 1600 900">
  <defs>
    <linearGradient id="bgLight" x1="0%" y1="0%" x2="100%" y2="100%">
      <stop offset="0%" stop-color="#f6f7fc"/>
      <stop offset="50%" stop-color="#f2f5ff"/>
      <stop offset="100%" stop-color="#eef4ff"/>
    </linearGradient>
    <linearGradient id="accentLight" x1="0%" y1="0%" x2="100%" y2="100%">
      <stop offset="0%" stop-color="#6366f1"/>
      <stop offset="100%" stop-color="#14b8a6"/>
    </linearGradient>
    <radialGradient id="glowLight" cx="50%" cy="0%" r="80%">
      <stop offset="0%" stop-color="#6366f1" stop-opacity="0.28"/>
      <stop offset="80%" stop-color="#6366f1" stop-opacity="0"/>
    </radialGradient>
    <filter id="shadowLight" x="-20%" y="-20%" width="140%" height="140%">
      <feGaussianBlur in="SourceAlpha" stdDeviation="16" result="blur"/>
      <feOffset dy="16" result="offsetBlur"/>
      <feMerge>
        <feMergeNode in="offsetBlur"/>
        <feMergeNode in="SourceGraphic"/>
      </feMerge>
    </filter>
  </defs>
  <rect width="1600" height="900" fill="url(#bgLight)"/>
  <circle cx="800" cy="120" r="480" fill="url(#glowLight)"/>
  <g transform="translate(210 150)">
    <rect width="1180" height="600" rx="32" fill="white" stroke="rgba(148,163,184,0.25)" stroke-width="2"/>
    <rect x="32" y="36" width="320" height="64" rx="18" fill="rgba(99,102,241,0.12)" />
    <rect x="384" y="36" width="220" height="64" rx="18" fill="rgba(99,102,241,0.08)" />
    <rect x="632" y="36" width="140" height="64" rx="18" fill="rgba(148,163,184,0.15)" />
    <g transform="translate(32 128)">
      <rect width="520" height="360" rx="24" fill="rgba(241,245,255,0.8)" stroke="rgba(148,163,184,0.25)" stroke-width="1"/>
      <rect x="32" y="36" width="456" height="48" rx="14" fill="rgba(99,102,241,0.15)"/>
      <rect x="32" y="108" width="288" height="48" rx="14" fill="rgba(99,102,241,0.12)"/>
      <rect x="32" y="180" width="408" height="48" rx="14" fill="rgba(99,102,241,0.18)"/>
      <rect x="32" y="252" width="260" height="48" rx="14" fill="rgba(99,102,241,0.12)"/>
    </g>
    <g transform="translate(600 128)">
      <rect width="520" height="360" rx="24" fill="rgba(246,250,255,0.9)" stroke="rgba(148,163,184,0.2)" stroke-width="1"/>
      <rect x="40" y="40" width="440" height="120" rx="20" fill="rgba(20,184,166,0.15)" stroke="rgba(20,184,166,0.4)" stroke-width="1.2"/>
      <rect x="40" y="188" width="344" height="100" rx="20" fill="rgba(99,102,241,0.15)" stroke="rgba(99,102,241,0.35)" stroke-width="1.2"/>
      <rect x="40" y="312" width="440" height="18" rx="9" fill="rgba(148,163,184,0.3)"/>
      <rect x="40" y="342" width="300" height="18" rx="9" fill="rgba(148,163,184,0.24)"/>
    </g>
    <g transform="translate(32 520)">
      <rect width="316" height="48" rx="16" fill="rgba(148,163,184,0.18)"/>
      <rect x="344" width="316" height="48" rx="16" fill="rgba(148,163,184,0.14)"/>
      <rect x="688" width="372" height="48" rx="16" fill="url(#accentLight)" filter="url(#shadowLight)" />
    </g>
  </g>
</svg>
